# xmcd
#
# Track frame offsets:
# 150
# 17000
# 36600
# 51669
# 69150
# 86155
# 101304
# 116663
# 130954
# 149748
# 166172
# 193649
#
# Disc length: 2783 seconds
#
# Revision: 1
# Processed by: cddbd v1.5.2PL0 Copyright (c) Steve Scherf et al.
# Submitted via: CedeCatalogueitor 2.6.0.6 http://personales.ya.com/cdcatalogueitor
#
DISCID=af0add0c
DTITLE=Utopía Factory - Utopía Factory
DYEAR=1900
DGENRE=
TTITLE0=Now
TTITLE1=The Same Bubble
TTITLE2=Define Myself
TTITLE3=You've Swept Me Off My Feet
TTITLE4=Behind A  Lie
TTITLE5=Fly From Home
TTITLE6=A Silent Tide
TTITLE7=Centro Médico
TTITLE8=Nobody By My Side
TTITLE9=Ripped
TTITLE10=Godforsaken Girt
TTITLE11=
EXTD=
EXTT0=
EXTT1=
EXTT2=
EXTT3=
EXTT4=
EXTT5=
EXTT6=
EXTT7=
EXTT8=
EXTT9=
EXTT10=
EXTT11=
PLAYORDER=
